<?xml version="1.0" ?><svg enable-background="new 0 0 504 504" id="Layer_1" version="1.1" viewBox="0 0 504 504" xml:space="preserve" xmlns="http://www.w3.org/2000/svg" xmlns:xlink="http://www.w3.org/1999/xlink"><path d="M454.5,258.9c-9.2,58.5-27.1,75.6-58.8,114.9c-31.7,33.3-77.3,88.9-141.9,85.8  c-58.5-9.2-75.6-27.1-114.9-58.8c-33.3-31.7-88.9-77.3-85.8-141.9c9.2-58.5,27.1-75.6,58.8-114.9c31.7-33.3,77.3-88.9,141.9-85.8  c58.5,9.2,75.6,27.1,114.9,58.8C402,148.8,457.5,194.3,454.5,258.9z" fill="#3765AF"/><path d="M337.9,198.6c-29.8-36.2-53.6-39.6-68.8-48.1c-10.9-6.2-21-17.1-33.6-32.3c-0.8,8.3-1.8,16.3-7,22.5  c-10.6,11.9-24.8,19.1-36.5,25.1c-29.8,14.5-63.9,48.6-63.9,103c0,26.4,10.1,54.8,29.2,76.6c20.4,23.3,51,39.3,87.2,39.1  c32.3-0.3,59-10.9,79.2-28.2c23.3-20.2,37.5-49.9,37.5-87.7C361.2,241,352.9,216.9,337.9,198.6z M305,360.3  c-14.2,11.9-53,18.9-71.4,3.6c-1.8-1.6-1.8-3.9-0.8-5.2c0.8-1,1.6-1.6,2.8-2.1c1.3-0.8,3.1-0.5,4.1,0.5c7.2,6.7,41.7,12.4,62.3-1.6  c0.8-0.5,1.8-0.8,2.6-0.5c0.5,0.3,1,0.5,1,1.3C305.8,357.9,306.1,359.5,305,360.3z M256.9,342.1c0-1.8,0.5-2.8,1.8-3.9  c7-7,14.5-11.1,23-11.1c13.5,0.3,14,3.6,17.9,11.4c0.8,1.6,0.3,3.1-0.3,3.9c-0.3,0.5-1.8,1.8-2.3,1.8c-1.3,0-1.8-0.5-2.3-1.8  c-3.1-8-8-8-14-8c-9.3,0-13.2,4.4-18.6,9.1c-1.3,1-2.6,2.1-3.6,1C257.4,344,256.9,342.9,256.9,342.1z M329.1,339.3  c-12.9-1-27.2-30.5-41.4-30.5c-18.6,0.3-46,31.8-76.6,31.3c-15.5-0.3-32.6-6-33.1-29.8c-0.5-19.9,18.9-40.6,43.7-40.1  c32.9,0.8,48.9,29.5,65.2,29.5c16,0,34.9-25.1,51.2-25.4c8.5-0.3,15.3,8,16,19.7C355,311.6,343.8,340.3,329.1,339.3z" fill="#FFFFFF"/></svg>